# xmcd
#
# Track frame offsets:
#	150
#	16830
#	35613
#	48746
#	62397
#	78282
#	94315
#	106814
#	122221
#	144701
#	162009
#	177079
#
# Disc length: 2602 seconds
# Revision: 0
# Processed by: cddbd v1.5.2PL0 Copyright (c) Steve Scherf et al.
# Submitted via: dBpowerAMP V12.0
#
DISCID=960a280c
DTITLE=Buddy Greene - Someday
DYEAR=2016
DGENRE=Country
TTITLE0=Vagabonds
TTITLE1=Children of the Living God
TTITLE2=This is my Father's world
TTITLE3=Hallelujahs
TTITLE4=Creation sings
TTITLE5=Before You I kneel
TTITLE6=Lord of the fields
TTITLE7=For the beauty of the earth
TTITLE8=Beams of heaven
TTITLE9=God is a giver
TTITLE10=Thy true love
TTITLE11=Be ye glad
EXTD=
EXTT0=
EXTT1=
EXTT2=
EXTT3=
EXTT4=
EXTT5=
EXTT6=
EXTT7=
EXTT8=
EXTT9=
EXTT10=
EXTT11=
PLAYORDER=
